<?xml version="1.0" encoding="UTF-8"?>
<svg id="Layer_2" data-name="Layer 2" xmlns="http://www.w3.org/2000/svg" viewBox="0 0 450.77 537.8">
  <defs>
    <style>
      .cls-1 {
        fill: #fff;
      }
    </style>
  </defs>
  <g id="animal_figures" data-name="animal figures">
    <g>
      <path class="cls-1" d="M338.14,537.8c-38.56-17.36-77.12-34.73-115.69-52.09-17.96,13.97-35.92,27.95-53.88,41.92-.74-26.6-1.48-53.21-2.22-79.81-49.37,5.27-98.73,10.53-148.1,15.8,30.03-29.95,60.07-59.91,90.1-89.86-36.12-18.73-72.23-37.45-108.35-56.18,31.79-10.33,63.57-20.67,95.36-31-23.57-36.15-47.15-72.3-70.72-108.46,37.05-.81,74.09-1.62,111.14-2.44-14.19-23.15-28.38-46.3-42.57-69.46,29.78-8.78,59.56-17.57,89.33-26.35,8.52-26.63,17.04-53.26,25.56-79.89,20.63,18.8,41.27,37.6,61.9,56.41,27.16-7.8,54.32-15.6,81.48-23.4,1.45,20.04,2.9,40.08,4.35,60.12,31.65,22.46,63.29,44.91,94.94,67.37-31.09,24.86-62.17,49.72-93.26,74.58,27.36,24.34,54.71,48.68,82.07,73.02-41.27,20.4-82.53,40.81-123.8,61.21,20.06,18.01,40.12,36.01,60.18,54.02-21.99,6.29-43.99,12.58-65.98,18.87,9.38,31.87,18.77,63.73,28.15,95.6Z"/>
      <g>
        <path d="M142.44,443.79c-17.19,6.09-38.85-13.46-36.41-24.87,1.64-7.65,14.4-12.93,29.71-14.18,21.88-25.18,21.97-26.45,43.85-51.63,3.53-8.12,6.93-17.08,9.97-26.87,7.03-22.68,10.36-32.17,11.51-49.47-23.88-8.96-47.77-17.91-71.65-26.87-9.36,5.87-21.68,3.16-27.51-5.67-6.2-9.39-3.15-22.92,6.97-28.23,9.79-5.13,22.59-.7,27.21,10.02,16.81,5.33,30.32,9.54,39.58,12.41,12.05,3.74,21.18,6.51,28.38,8.72,10.32,3.18,18.73,5.68,24.18,7.29,2.5-6.04,5-12.08,7.5-18.12,7.31,1.18,14.62,2.36,21.93,3.54-.82,6.55-1.65,13.09-2.47,19.64,5.66.78,14.53,1.97,25.48,3.34,13.5,1.69,19.54,2.34,31.36,3.8,7.81.97,19.01,2.41,32.65,4.32,6.6-8.62,17.44-11.72,25.58-8.17,12.09,5.27,15.66,24.08,7.01,32.77-6.66,6.69-20.18,7.01-29.96-1.68-27.53.77-55.06,1.54-82.58,2.3-1.31,9.55-2.58,14.24-3.56,21.39-.57,4.15-.84,7.93-1.13,11.95-.95,13.23-1.38,29.87-1.07,37.09,1.16,27,18.66,60.29,23.05,68.41,17.28,5.73,29.09,15.63,28.19,23.54-1.16,10.25-24.01,20.24-40.22,11.78-10.36-5.4-16.57-17.59-16.07-31.07-2.19-6.88-6.3-17.05-14.25-27.44-7.52-9.83-18.41-24.05-33.3-24.19-9.02-.09-15.76,5.02-26.83,13.42-9.71,7.36-16.37,15.07-20.55,20.59-.27,1.33-3.76,17.59-16.53,22.12Z"/>
        <path d="M208.64,156.36c-3.12,4.02-22.39,29.55-13.25,53.76.96,2.55,3.31,7.91,9.22,14.02,24.96,25.81,85.97,36.57,106.77,7.88,2.22-3.06,12.09-17.75,4.05-46.81,26.68-32.07,36.28-63.54,24.75-78.68-.5-.66-5.36-6.85-13.2-8.05-19.5-2.99-41.99,19.82-60.21,65.86-1.22-.43-2.44-.86-3.66-1.29,10.17-49.82,1.96-82.75-18.15-92.23-1.19-.56-9.14-4.16-17.41-1.05-17.99,6.76-26.02,40.96-18.91,86.59Z"/>
        <path class="cls-1" d="M220.4,171.1c-3.71,2.86-7.58,8.02-8.7,14.65-1.26,7.42,1.5,13.28,2.59,15.33-.89,1.86-2.18,5.23-2.14,9.56.06,6.12,2.74,10.46,3.66,11.9,4.22,6.62,10.75,9.18,20.9,13.01,6.82,2.57,12.29,4.64,20.19,5.37,8.28.77,20.79,1.94,29.64-5.97,4.62-4.13,6.59-9.24,7.5-12.54,3.1-4.47,11.32-17.62,6.64-29.58-4.13-10.56-15.82-13.83-38.91-20.28-18.35-5.13-31.93-8.72-41.37-1.45Z"/>
        <path d="M283.12,195.25c-8.12-4.4-22.9,7.91-21.51,14.28,1.36,6.22,19.19,11.54,25.07,4.05,3.99-5.09,1.89-15.37-3.56-18.33Z"/>
        <path d="M233.15,185.41c9.09-1.62,19.24,14.72,15.92,20.32-3.25,5.47-21.85,4.91-25.07-4.05-2.18-6.09,3.05-15.19,9.15-16.27Z"/>
        <path d="M242.52,230.91c-5.98-2.37-9.23-3.67-10.48-6.97-.09-.23-1.45-4.04.76-6.91,2.03-2.62,5.53-2.51,6.38-2.49,3.45.11,5.69,2.22,6.23,2.76-.16,1.73-.33,3.46-.49,5.19,1.69.39,3.39.78,5.08,1.17,1.44-3.77,1.91-4.28,2.09-4.23.18.05.32.74-.43,4.85l4.8.77c.47-1.45.94-2.9,1.4-4.34.91-.15,3.51-.46,6.17,1,.85.47,4.02,2.21,4.36,5.63.29,2.91-1.62,5.45-3.62,6.62-1.64.97-3.32,1-7.7.34-6.38-.96-9.67-1.46-14.57-3.41Z"/>
        <path class="cls-1" d="M203.77,258.64c-8.2-2.28-16.4-4.55-24.6-6.83-2.32-4.5-4.68-7.39-5.85-6.97-1.58.56-.66,6.99-.58,7.52-2.76,1.21-4.45,3.04-4.15,4.09.31,1.11,3,1.88,6.49,1.05,8.53,2.22,17.05,4.45,25.58,6.67.73,3.96,2.54,6.46,3.74,6.32,1.15-.14,2.24-2.76,2.29-6.29,3.59-2.35,5.41-5.12,4.81-6.2-.59-1.08-3.87-1.03-7.72.66Z"/>
        <path class="cls-1" d="M257.44,402.59c-4.29-8.03-8.58-16.07-12.87-24.1.68-4.36.59-7.64-.37-7.92-1.37-.4-4.17,5.37-4.31,5.67-3.48-1.11-6.34-.91-6.78.1-.45,1.03,1.4,3.36,4.82,5.2,4.47,7.59,8.94,15.19,13.41,22.78-2.28,3.32-2.76,6.37-1.81,7.11.91.72,3.54-.38,6.06-2.84,4.2.87,7.44.19,7.79-1,.34-1.18-2.01-3.46-5.93-4.99Z"/>
        <path class="cls-1" d="M160.75,243.26c-8.2-2.28-16.4-4.55-24.6-6.83-2.32-4.5-4.68-7.39-5.85-6.97-1.58.56-.66,6.99-.58,7.52-2.76,1.21-4.45,3.04-4.15,4.09.31,1.11,3,1.88,6.49,1.05,8.53,2.22,17.05,4.45,25.58,6.67.73,3.96,2.54,6.46,3.74,6.32,1.15-.14,2.24-2.76,2.29-6.29,3.59-2.35,5.41-5.12,4.81-6.2-.59-1.08-3.87-1.03-7.72.66Z"/>
        <path class="cls-1" d="M239.76,241.72c-2.28.47-4.1,4.46-3.42,7.6,1.06,4.89,8.36,8.36,13.29,5.98,4.37-2.11,6.15-8.48,4.55-10.13-1.21-1.25-3.56,1.04-7.61,0-3.89-1-4.73-3.88-6.82-3.45Z"/>
        <path class="cls-1" d="M240.93,272.93c2.36,2.33-.03,6.16-2.59,18.21-1.98,9.29-1.86,13.11-4.78,14.35-1.95.83-4.7.26-6.11-1.34-2.17-2.45.06-5.92,2.15-15.47,2.3-10.51,1.44-14.75,4.77-16.46,2.01-1.03,4.99-.85,6.57.71Z"/>
        <path class="cls-1" d="M242.96,280.78c2.11-1.96,4.57-.67,8.8-1.38,5.35-.9,6.58-3.86,8.82-2.87,2.28,1,3.51,5.16,2.15,7.65-1.54,2.83-5.96,2.69-10.9,2.54-1.75-.05-9.59-.3-10.21-3.11-.29-1.31,1.13-2.64,1.34-2.83Z"/>
        <path class="cls-1" d="M240.73,294.22c-.02-.12-.4-2.16.79-3.3,1.48-1.42,3.93-.04,9.37,1.08,7.22,1.49,9.61.44,11.3,2.7,1.18,1.58,1.53,4.1.49,5.59-1.93,2.77-8.01,1.17-11.82.16-3.44-.91-9.38-2.48-10.13-6.24Z"/>
        <path class="cls-1" d="M240.87,302.68c2.39-1.43,5.23-.37,10.39,1.66,5.13,2.01,7.71,3.06,8.83,5.43,1.06,2.25,1.16,5.68-.48,6.86-1.29.92-2.89-.08-11.71-4.46-6.81-3.38-9.25-4.48-9.27-6.37-.02-1.73,2.01-2.98,2.24-3.12Z"/>
        <path class="cls-1" d="M228.65,277.36c-.99-2.7-3.78-2.67-7.22-5.21-4.37-3.23-4.12-6.42-6.57-6.55-2.49-.14-5.46,3.01-5.38,5.85.09,3.22,4.1,5.1,8.57,7.2,1.58.74,8.69,4.07,10.51,1.85.85-1.04.19-2.86.09-3.13Z"/>
        <path class="cls-1" d="M226.58,291c.07-.1,1.33-1.75.79-3.3-.68-1.94-3.49-1.82-8.84-3.28-7.11-1.94-8.76-3.96-11.3-2.7-1.77.87-3.22,2.96-2.97,4.77.47,3.35,6.62,4.67,10.47,5.49,3.48.75,9.49,2.04,11.85-.98Z"/>
        <path class="cls-1" d="M223.08,299.65c-1.49-2.36-4.49-2.69-10.02-3.23-5.48-.53-8.26-.76-10.33.85-1.96,1.53-3.61,4.54-2.68,6.33.73,1.41,2.61,1.24,12.46,1.32,7.6.06,10.27.19,11.14-1.48.8-1.54-.44-3.56-.59-3.79Z"/>
        <path class="cls-1" d="M277.22,277.02l25.35,3.01c3.86-3.28,7.13-5.06,8.06-4.23,1.26,1.12-2.04,6.72-2.31,7.18,2.1,2.16,2.96,4.5,2.29,5.36-.71.91-3.49.61-6.41-1.49-8.73-1.18-17.46-2.35-26.2-3.53-2.18,3.39-4.8,5.01-5.86,4.43-1.02-.56-1.03-3.41.27-6.69-2.43-3.54-3.06-6.79-2.1-7.56.96-.78,3.97.51,6.9,3.54Z"/>
        <path class="cls-1" d="M320.69,277.97l25.5,1.26c3.62-3.54,6.77-5.54,7.75-4.78,1.33,1.03-1.57,6.84-1.82,7.32,2.24,2.01,3.26,4.29,2.65,5.19-.65.95-3.44.84-6.49-1.05-8.79-.57-17.58-1.15-26.38-1.72-1.94,3.53-4.44,5.33-5.54,4.82-1.05-.49-1.26-3.33-.19-6.69-2.66-3.36-3.52-6.56-2.61-7.4.9-.84,4,.24,7.12,3.05Z"/>
        <path class="cls-1" d="M235.55,256.38c-2.28.47-4.1,4.46-3.42,7.6,1.06,4.89,8.36,8.36,13.29,5.98,4.37-2.11,6.15-8.48,4.55-10.13-1.21-1.25-3.56,1.04-7.61,0-3.89-1-4.73-3.88-6.82-3.45Z"/>
        <path class="cls-1" d="M215.52,334.7c-2.28.47-4.1,4.46-3.42,7.6,1.06,4.89,8.36,8.36,13.29,5.98,4.37-2.11,6.15-8.48,4.55-10.13-1.21-1.25-3.56,1.04-7.61,0-3.89-1-4.73-3.88-6.82-3.45Z"/>
        <path class="cls-1" d="M219.16,320.88c-2.28.47-4.1,4.46-3.42,7.6,1.06,4.89,8.36,8.36,13.29,5.98,4.37-2.11,6.15-8.48,4.55-10.13-1.21-1.25-3.56,1.04-7.61,0-3.89-1-4.73-3.88-6.82-3.45Z"/>
        <path class="cls-1" d="M223.25,306.42c-2.28.47-4.1,4.46-3.42,7.6,1.06,4.89,8.36,8.36,13.29,5.98,4.37-2.11,6.15-8.48,4.55-10.13-1.21-1.25-3.56,1.04-7.61,0-3.89-1-4.73-3.88-6.82-3.45Z"/>
        <path class="cls-1" d="M219.35,354.52c-7.85-1.19-9.49-8.74-14.94-7.91-5.04.76-9.32,8.08-7.78,11.8,1.28,3.09,6.12,2.55,7.37,6.32.81,2.44-.85,3.8.33,5.98,1.03,1.91,3.58,3.27,5.87,3.04,3.85-.38,5.02-5.06,7.38-4.63,2,.36,1.54,3.79,4.66,5.78,2.12,1.35,5.42,1.75,7.07.3,1.83-1.61.13-4.16,1.94-6.49,1.98-2.55,5.18-.99,7.18-3.07,2.86-2.97,1.43-11.6-3.02-13.96-4.6-2.44-8.37,4.02-16.08,2.85Z"/>
        <path class="cls-1" d="M277.67,441.79c-4.29-8.03-8.58-16.07-12.87-24.1.68-4.36.59-7.64-.37-7.92-1.37-.4-4.17,5.37-4.31,5.67-3.48-1.11-6.34-.91-6.78.1-.45,1.03,1.4,3.36,4.82,5.2,4.47,7.59,8.94,15.19,13.41,22.78-2.28,3.32-2.76,6.37-1.81,7.11.91.72,3.54-.38,6.06-2.84,4.2.87,7.44.19,7.79-1,.34-1.18-2.01-3.46-5.93-4.99Z"/>
        <path class="cls-1" d="M169.6,387.22c6.6-6.28,13.2-12.55,19.8-18.83.73-4.35,1.85-7.43,2.84-7.4,1.42.05,2.26,6.41,2.3,6.73,3.65.04,6.3,1.13,6.41,2.23.11,1.12-2.38,2.75-6.21,3.42-6.63,5.8-13.27,11.6-19.9,17.4,1.11,3.87.61,6.91-.52,7.32-1.09.39-3.24-1.47-4.86-4.61-4.26-.5-7.12-2.16-7.08-3.4.05-1.23,3-2.65,7.2-2.86Z"/>
        <path class="cls-1" d="M134.93,415.66c7.05-5.77,14.1-11.54,21.14-17.31,1.05-4.29,2.39-7.28,3.39-7.17,1.42.15,1.78,6.56,1.8,6.89,3.64.31,6.2,1.6,6.23,2.7.02,1.12-2.58,2.56-6.44,2.95-7.04,5.29-14.09,10.59-21.13,15.88.83,3.94.1,6.94-1.06,7.26-1.12.31-3.12-1.71-4.5-4.96-4.21-.81-6.94-2.68-6.8-3.91.14-1.22,3.19-2.43,7.39-2.32Z"/>
        <path class="cls-1" d="M261.03,263.87c3.14.24,5.96,3.22,5.5,5.11-.76,3.16-10.99,4.67-12.31,2.23-1-1.85,2.15-7.7,6.81-7.34Z"/>
        <path class="cls-1" d="M222.43,256.29c-3.06-.76-6.67,1.18-6.83,3.12-.28,3.23,8.96,7.9,10.98,5.99,1.53-1.44.39-7.98-4.15-9.11Z"/>
        <path class="cls-1" d="M114.91,230.42c-1.54,3.23-2.13,8.35.16,9.87,2.61,1.73,8.91-1.21,10.47-6.04,1.23-3.81-.44-8.98-3.36-9.68-2.89-.7-6.01,3.2-7.27,5.86Z"/>
        <path class="cls-1" d="M367.17,280.82c.06-3.58-1.54-8.48-4.26-8.91-3.09-.49-7.6,4.81-7,9.85.47,3.98,4.13,7.98,7.08,7.41,2.91-.57,4.13-5.41,4.18-8.35Z"/>
        <path class="cls-1" d="M274.72,457.68c-.28,3.82,6.72,9.41,12.19,7.24,4.83-1.91,6.94-9.27,4.45-12.29-2.73-3.3-10.15-.43-10.5-.29-1.28.51-5.92,2.36-6.14,5.34Z"/>
        <path class="cls-1" d="M136.88,430.33c-.94,3.72-9.34,6.81-13.85,3.04-3.98-3.34-3.67-10.99-.35-13.06,3.63-2.27,9.77,2.79,10.06,3.03,1.06.89,4.87,4.1,4.14,7Z"/>
      </g>
    </g>
  </g>
</svg>