<?xml version="1.0" encoding="UTF-8"?>
<svg id="Layer_2" data-name="Layer 2" xmlns="http://www.w3.org/2000/svg" viewBox="0 0 226.2 420.78">
  <defs>
    <style>
      .cls-1, .cls-2, .cls-3 {
        stroke: #000;
        stroke-miterlimit: 10;
        stroke-width: 2px;
      }

      .cls-2 {
        fill: #fff;
      }

      .cls-3 {
        fill: #f867b2;
      }
    </style>
  </defs>
  <g id="animal_figures" data-name="animal figures">
    <g>
      <path class="cls-3" d="M72.04,284.89c3.81-25.18,7.61-50.36,11.42-75.54-6.78,5.88-14.07,12.97-21.31,21.43-12.03,14.05-20.42,27.76-26.26,39.22,1.54,8.2-1.09,16.04-6.72,19.48-10.38,6.34-28.31-3.91-28.16-12.71.1-5.46,7.16-10.8,16.24-13.67,8.79-18.2,23.77-42.9,49.09-66.1,10.59-9.7,21.15-17.45,30.82-23.61,1.01-6.9,2.03-13.8,3.04-20.7,8.37.36,16.74.73,25.12,1.09.25,6.66.51,13.32.76,19.98,11.69,8.08,24.41,18.02,37.29,30.14,22.09,20.79,37.91,41.7,49.09,59.2,1.12.61,13.65,7.63,12.68,15.12-1.17,9.1-21.99,17.08-31.2,9.08-6.56-5.69-4.14-16.76-3.93-17.67-6.12-10.48-14.7-22.92-26.64-35.59-7.99-8.48-15.95-15.43-23.21-21.06,3.81,23.97,7.61,47.94,11.42,71.91,3.81,32.08,7.61,64.16,11.42,96.24,11.36,8.48,17.12,20.17,13.83,27.84-5.3,12.35-34.51,15.33-43,2.54-4.5-6.78-2.73-17.33,3.68-26.38-5.09-40.17-16.73-68.69-27.02-68.64-10.24.05-21.47,28.41-26.26,67.92,1.01,1.38,10.64,14.88,5.45,24.57-7.54,14.1-42.01,11.9-47.19,0-4.5-10.35,13.87-26.39,14.71-27.11,4.95-32.32,9.89-64.65,14.84-96.97Z"/>
      <path class="cls-3" d="M175.67,142.03c2.44-4.77,5.42-14.52,5.33-25.79-.1-12.5-3.94-22.08-6.47-27.24,19-37.55,18.5-71.26,1.9-83.17-.49-.35-9.2-6.4-19.41-4.36-20.44,4.09-34.95,38.24-34.63,85.35h-15.98c.37-46.68-13.02-81-33.11-85.35-8.35-1.81-15.52,2.07-16.36,2.54-17.62,9.91-21.01,43.9-7.3,84.44-3.19,7.66-14.09,36.37.13,57.94,25.15,38.13,110.6,25.52,125.9-4.37Z"/>
      <g>
        <path class="cls-2" d="M119.9,114.19c8.13-4.17,14.37-4.47,18.31-4.14,17.76,1.52,33.72,19.97,33.72,19.97,0,0,0,.01,0,.01s0,.01,0,.01c-.87,2.59-3.14,7.97-8.67,11.49-11.89,7.58-27-.92-28.18-1.61-13.95-8.11-15.09-24.1-15.17-25.75Z"/>
        <path class="cls-1" d="M137.93,109.84c-7.27,7.95-8.25,18.56-3.13,25.52,3.8,5.16,11.88,9.57,18.55,6.9,7.04-2.82,11.19-13.03,6.5-22.99-2.59-2.05-6.43-4.64-11.56-6.67-3.93-1.55-7.52-2.34-10.36-2.76Z"/>
      </g>
      <g>
        <path class="cls-2" d="M106.29,114.1c-8.13-4.17-14.37-4.47-18.31-4.14-17.76,1.52-33.72,19.97-33.72,19.97,0,0,0,.01,0,.01s0,.01,0,.01c.87,2.59,3.14,7.97,8.67,11.49,11.89,7.58,27-.92,28.18-1.61,13.95-8.11,15.09-24.1,15.17-25.75Z"/>
        <path class="cls-1" d="M88.26,109.75c7.27,7.95,8.25,18.56,3.13,25.52-3.8,5.16-11.88,9.57-18.55,6.9-7.04-2.82-11.19-13.03-6.5-22.99,2.59-2.05,6.43-4.64,11.56-6.67,3.93-1.55,7.52-2.34,10.36-2.76Z"/>
      </g>
    </g>
  </g>
</svg>