<?xml version="1.0" encoding="UTF-8"?>
<svg id="Layer_2" data-name="Layer 2" xmlns="http://www.w3.org/2000/svg" viewBox="0 0 427.48 525.08">
  <defs>
    <style>
      .cls-1 {
        fill: #fff;
      }
    </style>
  </defs>
  <g id="animal_figures" data-name="animal figures">
    <path class="cls-1" d="M96.48,202.25c-28.34-24.18-56.69-48.36-85.03-72.54,26.49-4.63,52.98-9.25,79.48-13.88-2.43-29.38-4.86-58.77-7.29-88.15,36.32,15.58,72.64,31.16,108.97,46.74h0L297.94,0c2.26,34.45,4.52,68.89,6.78,103.34,23.25-2.08,46.51-4.16,69.76-6.25-16.08,25.57-32.16,51.13-48.24,76.7,33.75,1.21,67.49,2.41,101.24,3.62,0,0-109.06,106.92-110.17,114.13-1.11,7.2,89.8,49.98,89.8,49.98,0,0-67.78,24.04-62.09,27.92s40.9,130.62,40.9,130.62c0,0-89.83-59.87-90.47-55.96-.64,3.9-29.52,80.99-29.52,80.99l-35.3-64.22c-43.33,14.44-86.66,28.89-129.99,43.33,11.86-44.57,23.72-89.14,35.58-133.71l-108.24-3.77,56.61-46.14c-28.2-13.99-56.4-27.98-84.6-41.97,32.16-25.45,64.32-50.9,96.48-76.35Z"/>
    <g>
      <path d="M249.88,263.5c25.3-7.54,50.59-15.07,75.89-22.61.97,1.12,6.03,6.72,13.3,6.42,1.94-.08,6.26-.26,8.45-3.69,1.67-2.62,1.52-6.23-.28-9.37,5.36-.77,8.6-5.78,7.69-9.9-.96-4.34-6.51-7.58-11.84-5.47-.14-6.67-4.74-11.61-9.14-11.91-5.18-.36-11.46,5.65-10.55,13.92-18.98,2.09-34.07,4.73-44.64,6.83-6.67,1.33-12.27,2.53-29.07,6.03-10.57,2.2-19.18,3.9-24.76,4.99-1.92-6.25-3.85-12.5-5.77-18.75-7.39.49-14.78.98-22.16,1.47.21,6.6.41,13.19.62,19.79-5.7.24-14.65.6-25.69.94-15.27.47-20.88.44-31.58.85-7.46.28-18.35.81-31.71,1.86,1.12-6.21-2.89-11.94-8.17-13.02-5.87-1.2-12.41,3.53-12.86,10.59-7.35-.47-12.97,5.65-12.45,11.61.46,5.27,5.7,9.96,12.12,9.63-1.75,6.06,1.01,11.91,5.08,13.58,4.87,1.99,12.51-1.66,14.15-9.46,26.06,3.02,52.11,6.04,78.17,9.07.35,23.57.7,47.14,1.05,70.71-11.14,22.54-22.28,45.08-33.42,67.61-7.85-3.93-16.28,0-18.05,5.72-1.34,4.32,1.02,9.96,6.09,13.16-2.48,6.35-.87,13.27,3.55,16.81,5.84,4.68,16.29,3.22,21.59-4.91,5.22,3.04,11.39,2.36,14.54-.97,4.1-4.32,3.42-13.42-3.64-18.19,3.06-7.08,8.75-18.21,18.91-29.43,9.79-10.81,22.82-25.2,38.93-23.98,8.9.68,14.95,5.83,25.51,14.83,12.69,10.81,20.8,22.1,25.64,29.95-4.62,4.66-4.52,12.25.07,16.69,4.7,4.56,12.55,4.28,16.99-.78,5.23,5.74,13.47,6.03,17.87,1.94,3.16-2.94,4.17-7.97,2.63-12.7,4.51-3.85,5.41-10.31,2.5-14.77-3.35-5.11-11.04-6.55-16.51-2.38-14.94-21.56-29.88-43.12-44.82-64.67-4.74-26-9.49-52.01-14.23-78.01Z"/>
      <path d="M143.06,157.1c-7.01-37.29-12.61-66.1-15.52-81.01,20.75,24.2,41.5,48.4,62.25,72.59,8.29-1.19,16.57-2.39,24.86-3.58,13.41-33.06,26.81-66.13,40.22-99.19.49,18.54,1.42,49.93,3.06,89.56,1.87,45.1,2.88,57.75-6.42,70.4-18.52,25.19-64.98,32.8-87.83,14.52-10.54-8.43-12.36-19.41-20.61-63.3Z"/>
      <path class="cls-1" d="M237.25,158.88c9.98,9.28,7.25,25.89,6.78,28.52.4,3.55.54,9.89-2.83,16.14-4.83,8.95-13.92,12.23-21.25,14.87-2.63.95-9.77,3.3-19.45,3.3-8.71,0-21.25.02-27.35-8.44-2.78-3.86-3.32-8.22-3.35-11.17-1.7-2.75-10.63-17.78-4.62-30.3,5.38-11.21,19.39-13.4,36.69-16.11,15.95-2.5,27.35-4.28,35.37,3.18Z"/>
      <path d="M178.33,175.09c8.5-3.62,22.05,10.02,20.07,16.23-1.93,6.06-20.19,9.69-25.33,1.68-3.5-5.44-.44-15.48,5.26-17.91Z"/>
      <path d="M229.01,169.97c-8.9-2.46-20.53,12.85-17.75,18.74,2.72,5.75,21.29,6.94,25.33-1.68,2.75-5.86-1.61-15.41-7.58-17.06Z"/>
      <path d="M189.62,205.19c-2.22,3.57-.11,8.48,3.34,10.18,2.89,1.42,5.88.18,6.42-.05-.23-1.34-.46-2.68-.69-4.02,1.47,1.12,2.95,2.24,4.42,3.36,4.4-.73,8.81-1.45,13.21-2.18.86-1.16,1.72-2.31,2.58-3.47.31,1.14.61,2.28.92,3.41,3.83-.25,7.04-2.49,8.19-5.68.82-2.28,1-6.19-1.67-8.1-2.48-1.78-6.57-1.24-9.17,1.78-.64,1.43-1.28,2.85-1.91,4.28-1.05-1.27-2.1-2.54-3.15-3.8-2.12.37-4.24.74-6.35,1.11-.83,1.28-1.66,2.56-2.49,3.84-1.63-1.12-3.25-2.23-4.88-3.35-3.43-1.2-7.1.03-8.76,2.7Z"/>
      <path class="cls-1" d="M250.15,247.8l25.13-4.5c2.74-4.26,5.35-6.92,6.48-6.4,1.53.7,0,7.02-.13,7.54,2.64,1.46,4.14,3.44,3.75,4.46-.42,1.07-3.16,1.59-6.56.44-8.7,1.42-17.39,2.83-26.09,4.25-1.1,3.87-3.13,6.19-4.31,5.94-1.14-.24-1.97-2.96-1.69-6.48-3.35-2.68-4.9-5.6-4.21-6.63.69-1.02,3.95-.67,7.63,1.38Z"/>
      <path class="cls-1" d="M183.56,385.72c5.02-7.6,10.05-15.19,15.07-22.79-.27-4.41.13-7.66,1.11-7.85,1.4-.27,3.64,5.74,3.76,6.04,3.57-.78,6.4-.31,6.75.73.35,1.06-1.71,3.21-5.28,4.72-5.16,7.14-10.32,14.28-15.48,21.42,1.96,3.52,2.15,6.6,1.14,7.25-.98.63-3.49-.71-5.77-3.4-4.26.47-7.43-.51-7.66-1.72-.23-1.21,2.32-3.26,6.37-4.41Z"/>
      <path class="cls-1" d="M294.33,235.13c8.38-1.5,16.75-3,25.13-4.5,2.74-4.26,5.35-6.92,6.48-6.4,1.53.7,0,7.02-.13,7.54,2.64,1.46,4.14,3.44,3.75,4.46-.42,1.07-3.16,1.59-6.56.44-8.7,1.42-17.39,2.83-26.09,4.25-1.1,3.87-3.13,6.19-4.31,5.94-1.14-.24-1.97-2.96-1.69-6.48-3.35-2.68-4.9-5.6-4.21-6.63.69-1.02,3.95-.67,7.63,1.38Z"/>
      <path class="cls-1" d="M216.9,226.82c2.22.68,3.66,4.83,2.69,7.88-1.52,4.77-9.11,7.54-13.8,4.71-4.16-2.51-5.33-9.02-3.59-10.51,1.32-1.13,3.45,1.37,7.58.72,3.97-.63,5.07-3.42,7.11-2.79Z"/>
      <path class="cls-1" d="M212.9,259.17c-2.57,2.1-.55,6.14.87,18.38,1.1,9.43.62,13.23,3.41,14.73,1.87,1.01,4.66.7,6.21-.76,2.39-2.24.49-5.9-.69-15.61-1.3-10.68-.05-14.82-3.21-16.83-1.9-1.21-4.89-1.31-6.6.09Z"/>
      <path class="cls-1" d="M210.15,266.8c-1.91-2.15-4.49-1.09-8.63-2.2-5.25-1.4-6.19-4.46-8.51-3.68-2.36.79-3.97,4.81-2.86,7.42,1.27,2.96,5.68,3.24,10.61,3.55,1.75.11,9.58.6,10.46-2.14.41-1.28-.88-2.73-1.07-2.95Z"/>
      <path class="cls-1" d="M211.1,280.39c.03-.12.6-2.11-.48-3.36-1.34-1.55-3.91-.41-9.43.2-7.33.81-9.6-.46-11.51,1.63-1.33,1.46-1.91,3.93-1.01,5.52,1.66,2.94,7.87,1.91,11.76,1.27,3.51-.58,9.58-1.59,10.67-5.26Z"/>
      <path class="cls-1" d="M210.18,288.8c-2.25-1.65-5.17-.85-10.5.68-5.29,1.52-7.96,2.32-9.3,4.58-1.26,2.14-1.69,5.55-.17,6.87,1.19,1.04,2.89.19,12.08-3.35,7.1-2.73,9.62-3.59,9.82-5.47.18-1.72-1.72-3.15-1.94-3.31Z"/>
      <path class="cls-1" d="M224.71,264.73c1.24-2.6,4.01-2.3,7.67-4.51,4.65-2.81,4.7-6,7.15-5.91,2.49.1,5.16,3.51,4.81,6.33-.39,3.2-4.56,4.69-9.21,6.36-1.65.59-9.04,3.24-10.64.86-.75-1.12.08-2.87.21-3.13Z"/>
      <path class="cls-1" d="M225.5,278.51c-.07-.1-1.16-1.86-.48-3.36.85-1.86,3.64-1.48,9.11-2.43,7.26-1.27,9.1-3.12,11.51-1.63,1.68,1.03,2.93,3.25,2.51,5.02-.78,3.29-7.03,4.03-10.94,4.49-3.54.42-9.64,1.14-11.71-2.09Z"/>
      <path class="cls-1" d="M228.17,287.44c1.7-2.21,4.73-2.26,10.28-2.27,5.5-.01,8.3.02,10.2,1.81,1.81,1.71,3.16,4.86,2.07,6.55-.86,1.33-2.72.99-12.53.15-7.58-.65-10.24-.77-10.96-2.52-.65-1.61.78-3.51.94-3.72Z"/>
      <path class="cls-1" d="M180.06,257.52l-25.52.62c-3.53-3.63-6.63-5.71-7.63-4.97-1.35.99,1.4,6.88,1.63,7.37-2.29,1.96-3.37,4.2-2.78,5.12.62.97,3.41.93,6.52-.88,8.8-.35,17.61-.7,26.41-1.06,1.85,3.57,4.31,5.44,5.41,4.96,1.06-.46,1.34-3.3.36-6.69,2.75-3.29,3.68-6.47,2.8-7.33-.88-.86-4,.13-7.2,2.87Z"/>
      <path class="cls-1" d="M136.7,254.39l-25.51-1.13c-3.28-3.86-6.22-6.15-7.27-5.48-1.42.9.93,6.96,1.12,7.46-2.42,1.8-3.65,3.96-3.13,4.92.55,1.01,3.34,1.16,6.56-.44,8.81.25,17.61.5,26.42.76,1.6,3.69,3.92,5.72,5.06,5.31,1.09-.39,1.56-3.2.81-6.65,2.97-3.1,4.12-6.2,3.29-7.13-.82-.92-4-.14-7.38,2.37Z"/>
      <path class="cls-1" d="M221.06,241.03c2.22.68,3.66,4.83,2.69,7.88-1.52,4.77-9.11,7.54-13.8,4.71-4.16-2.51-5.33-9.02-3.59-10.51,1.32-1.13,3.45,1.37,7.58.72,3.97-.63,5.07-3.42,7.11-2.79Z"/>
      <path class="cls-1" d="M230.5,320.4c2.22.68,3.66,4.83,2.69,7.88-1.52,4.77-9.11,7.54-13.8,4.71-4.16-2.51-5.33-9.02-3.59-10.51,1.32-1.13,3.45,1.37,7.58.72,3.97-.63,5.07-3.42,7.11-2.79Z"/>
      <path class="cls-1" d="M228.22,306.99c2.22.68,3.66,4.83,2.69,7.88-1.52,4.77-9.11,7.54-13.8,4.71-4.16-2.51-5.33-9.02-3.59-10.51,1.32-1.13,3.45,1.37,7.58.72,3.97-.63,5.07-3.42,7.11-2.79Z"/>
      <path class="cls-1" d="M227.32,293.48c2.22.68,3.66,4.83,2.69,7.88-1.52,4.77-9.11,7.54-13.8,4.71-4.16-2.51-5.33-9.02-3.59-10.51,1.32-1.13,3.45,1.37,7.58.72,3.97-.63,5.07-3.42,7.11-2.79Z"/>
      <path class="cls-1" d="M226.57,339.65c7.93-.45,10.26-7.81,15.61-6.48,4.95,1.23,8.53,8.92,6.64,12.47-1.57,2.95-6.33,1.96-7.93,5.6-1.03,2.35.49,3.86-.89,5.92-1.21,1.8-3.87,2.92-6.13,2.48-3.8-.74-4.53-5.51-6.92-5.3-2.03.17-1.89,3.63-5.18,5.32-2.24,1.15-5.56,1.24-7.07-.37-1.67-1.78.26-4.16-1.33-6.65-1.74-2.72-5.06-1.47-6.86-3.73-2.57-3.22-.34-11.68,4.32-13.62,4.81-2,7.96,4.79,15.74,4.34Z"/>
      <path class="cls-1" d="M158.64,421.89c5.02-7.6,10.05-15.19,15.07-22.79-.27-4.41.13-7.66,1.11-7.85,1.4-.27,3.64,5.74,3.76,6.04,3.57-.78,6.4-.31,6.75.73.35,1.06-1.71,3.21-5.28,4.72-5.16,7.14-10.32,14.28-15.48,21.42,1.96,3.52,2.15,6.6,1.14,7.25-.98.63-3.49-.71-5.77-3.4-4.26.47-7.43-.51-7.66-1.72-.23-1.21,2.32-3.26,6.37-4.41Z"/>
      <path class="cls-1" d="M272.96,375.83c-5.98-6.87-11.97-13.73-17.95-20.6-.32-4.4-1.14-7.57-2.14-7.64-1.42-.09-2.85,6.17-2.92,6.49-3.64-.3-6.38.54-6.59,1.62-.21,1.1,2.12,2.96,5.86,3.98,6.06,6.4,12.12,12.79,18.18,19.19-1.47,3.75-1.26,6.82-.17,7.34,1.05.5,3.37-1.16,5.27-4.13,4.29-.1,7.29-1.48,7.36-2.72.07-1.23-2.74-2.92-6.9-3.53Z"/>
      <path class="cls-1" d="M302.45,408.38c-5.98-6.87-11.97-13.73-17.95-20.6-.32-4.4-1.14-7.57-2.14-7.64-1.42-.09-2.85,6.17-2.92,6.49-3.64-.3-6.38.54-6.59,1.62-.21,1.1,2.12,2.96,5.86,3.98,6.06,6.4,12.12,12.79,18.18,19.19-1.47,3.75-1.26,6.82-.17,7.34,1.05.5,3.37-1.16,5.27-4.13,4.29-.1,7.29-1.48,7.36-2.72.07-1.23-2.74-2.92-6.9-3.53Z"/>
      <path class="cls-1" d="M193.6,246.19c-3.15-.05-6.23,2.65-5.96,4.57.46,3.21,10.5,5.68,12.05,3.37,1.17-1.75-1.42-7.86-6.09-7.94Z"/>
      <path class="cls-1" d="M234.11,241.83c3.12-.47,6.53,1.8,6.51,3.74-.03,3.24-9.66,7.02-11.5,4.94-1.39-1.58.36-7.98,4.99-8.68Z"/>
      <path class="cls-1" d="M341.17,226.65c1.23,3.36,1.34,8.51-1.09,9.81-2.76,1.48-8.76-2.04-9.86-7-.87-3.91,1.27-8.9,4.25-9.33,2.94-.42,5.68,3.75,6.69,6.51Z"/>
      <path class="cls-1" d="M90.15,252.87c.28-3.57,2.32-8.3,5.07-8.47,3.12-.19,7.11,5.5,6.05,10.47-.84,3.92-4.86,7.56-7.75,6.71-2.85-.84-3.6-5.77-3.37-8.71Z"/>
      <path class="cls-1" d="M163.5,437.07c-.08,3.83-7.57,8.74-12.81,6.07-4.63-2.36-6.04-9.88-3.28-12.65,3.02-3.03,10.14.52,10.48.69,1.23.63,5.67,2.9,5.61,5.89Z"/>
      <path class="cls-1" d="M298.5,423.76c.58,3.79,8.66,7.66,13.5,4.32,4.28-2.95,4.68-10.59,1.57-12.97-3.4-2.6-9.98,1.86-10.3,2.08-1.13.79-5.24,3.63-4.78,6.58Z"/>
    </g>
  </g>
</svg>