<?xml version="1.0" encoding="UTF-8"?>
<svg id="Layer_2" data-name="Layer 2" xmlns="http://www.w3.org/2000/svg" viewBox="0 0 237.53 440.87">
  <defs>
    <style>
      .cls-1, .cls-2, .cls-3 {
        stroke: #000;
        stroke-miterlimit: 10;
        stroke-width: 2px;
      }

      .cls-2 {
        fill: #fff;
      }

      .cls-3 {
        fill: #34a0ff;
      }
    </style>
  </defs>
  <g id="animal_figures" data-name="animal figures">
    <g>
      <path class="cls-3" d="M167.38,298.66c-4.28-28.29-8.55-56.58-12.83-84.87,7.62,6.6,15.81,14.57,23.94,24.07,13.52,15.79,22.94,31.19,29.5,44.07-3.89,2.77-4.06,8-1.28,10.61,2.7,2.53,7.96,2.39,10.89-1.12,1.31,4.06,5.88,5.72,8.77,4.38,2.87-1.32,4.34-5.7,1.9-9.2,3.67.33,6.99-.95,7.93-3.04,1.25-2.76-1.26-7.77-7.27-9.38-9.88-20.45-26.7-48.2-55.15-74.26-11.9-10.9-23.76-19.6-34.63-26.52-1.14-7.75-2.28-15.51-3.42-23.26-9.41.41-18.81.82-28.22,1.22-.28,7.48-.57,14.96-.86,22.44-13.13,9.08-27.43,20.24-41.9,33.87-24.81,23.36-42.59,46.85-55.15,66.51-5.64.88-9.15,5.4-8.55,9.38.61,4.09,5.31,6.02,5.56,6.12-2.1,4.7-.55,9.65,2.57,11.42,3.79,2.17,10.79.14,13.25-6.12,3.51,1.99,7.76,1.99,10.69,0,3.95-2.69,5.1-8.74,1.71-13.47,6.88-11.77,16.52-25.75,29.93-39.99,8.97-9.53,17.91-17.34,26.08-23.67-4.28,26.93-8.55,53.86-12.83,80.79-4.28,36.04-8.55,72.09-12.83,108.13-10.77-1.09-18.36,6.32-17.96,12.24.32,4.7,5.74,9.6,13.25,10.61.85,5.56,5.69,9.83,11.54,10.2,5.82.37,11.18-3.21,12.83-8.57,5.77,2.44,12.12.92,14.96-2.86,3.63-4.82,1.69-13.5-5.99-17.14,5.72-45.14,18.8-77.18,30.36-77.12,11.51.06,24.13,31.92,29.5,76.3-6.17,2.02-9.21,8.38-7.27,13.47,2.09,5.48,9.57,8.43,15.82,5.3,2.41,6.12,8.99,9.28,14.54,7.75,4.18-1.15,7.36-4.86,8.12-9.38,9.24-1.05,14.15-8.68,12.83-13.47-1.1-3.97-6.85-7.31-13.68-6.53-5.56-36.32-11.12-72.63-16.67-108.95Z"/>
      <path class="cls-3" d="M53.24,70.46c-.35-5.45-.92-21.91-1.3-31.31-.57-14.25-1-25.88-1.28-33.46,20.35,20.99,40.7,41.97,61.05,62.96,10.31.03,20.62.05,30.94.08,16.8-22.1,33.6-44.2,50.39-66.3,2.64,14.99,5.24,36.57,4.08,62.49-1.79,40.11-2.86,63.84-20.43,80.8-27.08,26.14-85.07,27.05-109.65,1.89-10.12-10.36-10.94-32.96-13.8-77.15Z"/>
      <g>
        <path class="cls-2" d="M134.82,127.81c-.44-5.09,3.31-8.91,7.22-12.94,3.92-4.05,8.12-8.39,13.78-8.14,4.25.18,7.1,2.88,11.59,7.1,4.45,4.19,7.78,7.31,7.87,11.9.1,4.64-3.17,8.03-5.69,10.65-2.31,2.4-7.25,7.53-14.66,7.52-6.2-.02-10.5-3.64-13.12-5.85-2.9-2.44-6.6-5.55-7-10.23Z"/>
        <path class="cls-1" d="M155.13,106.72c-1.9,1.9-4.46,4.87-6.56,8.98-1.02,1.99-2.99,5.82-3.28,10.02-.66,9.44,7.42,16.65,9.19,18.16,2.38-2.15,10.15-9.68,9.19-18.58-.39-3.59-2.21-7.51-3.28-9.81-1.78-3.82-3.76-6.77-5.25-8.77Z"/>
      </g>
      <g>
        <path class="cls-2" d="M113.42,128.08c.44-5.09-3.31-8.91-7.22-12.94-3.92-4.05-8.12-8.39-13.78-8.14-4.25.18-7.1,2.88-11.59,7.1-4.45,4.19-7.78,7.31-7.87,11.9-.1,4.64,3.17,8.03,5.69,10.65,2.31,2.4,7.25,7.53,14.66,7.52,6.2-.02,10.5-3.64,13.12-5.85,2.9-2.44,6.6-5.55,7-10.23Z"/>
        <path class="cls-1" d="M93.11,106.99c1.9,1.9,4.46,4.87,6.56,8.98,1.02,1.99,2.99,5.82,3.28,10.02.66,9.44-7.42,16.65-9.19,18.16-2.38-2.15-10.15-9.68-9.19-18.58.39-3.59,2.21-7.51,3.28-9.81,1.78-3.82,3.76-6.77,5.25-8.77Z"/>
      </g>
    </g>
  </g>
</svg>