<?xml version="1.0" encoding="UTF-8"?>
<svg id="Layer_2" data-name="Layer 2" xmlns="http://www.w3.org/2000/svg" viewBox="0 0 725.97 840.65">
  <defs>
    <style>
      .cls-1 {
        fill: #fff;
        stroke: #000;
        stroke-miterlimit: 10;
        stroke-width: 2px;
      }
    </style>
  </defs>
  <g id="lightnings">
    <path class="cls-1" d="M663.19,291.49l-39.05,37.85-41.87-60.61-85.33,4.77-61.78-49.84,2.3-8.78-101.51-25.97,27.38-68.46-30.22-61.85L381.51,1h-34.7l-36.83,55.71,36.83,69.59-36.83,70.59,100.46,27.2v52.65l-21.14,76.95,48.16-13.22s25.02,67.52,23.14,73.18c-1.89,5.67-127.48,23.14-127.48,23.14l7.89,58.78-15.15,35.69c-12.2-12.81-24.39-25.62-36.59-38.43l-90,8,42-52-97-15-3-85-9,94,85,8.75-33,62.25,66.26-4.55,2.74,85.55-83-47-98,37,30,63L.27,627.83l119,33-31-72,84-33,94.5,65.32-5.24-112.62,24.74-1.7,33.2,39.48-9.48,22.33s45.71,74.6,50.71,95.78c5,21.19-40.84,113.8-40.84,113.8l51.98,61.78-37.77-63.74,44.38-116.62-52.88-92.54,29.75-67.52,1.89-43.44,118.82-35.65-28.17-93.72-42.02,8.97,25.88-98.87,61.24,44.61,82.71-4.37,45.7,72.12,44.11-41.76,41.47,36.84.15,134.85,17.82-132.54-61.72-55.14Z"/>
  </g>
</svg>