<?xml version="1.0" encoding="UTF-8"?>
<svg id="Layer_2" data-name="Layer 2" xmlns="http://www.w3.org/2000/svg" viewBox="0 0 612.31 904.16">
  <defs>
    <style>
      .cls-1 {
        fill: #fff;
        stroke: #000;
        stroke-miterlimit: 10;
        stroke-width: 2px;
      }
    </style>
  </defs>
  <g id="lightnings">
    <polygon class="cls-1" points="610.99 451.19 562.39 366.18 483.39 418.18 411.39 392.18 422.94 364.02 458.14 375.18 449.71 239.18 525.54 192.59 442.82 236.59 448.71 355.18 346.71 324.18 304.71 390.18 195.09 316.31 215.89 307.68 180.89 237.68 293.39 203.22 254.89 150.68 323.89 98.68 256.89 78.68 173.89 9.68 130.89 1.68 236.89 90.68 291.89 106.68 236.89 149.68 265.89 188.68 158.89 233.68 194.89 295.68 2.89 379.68 135.89 419.68 115.89 517.68 244.89 584.68 73.89 629.68 103.89 689.68 91.89 748.68 205.75 799.18 183.39 903.82 222.89 794.68 105.89 740.68 133.89 683.68 100.89 649.68 282.89 578.68 131.89 497.68 150.89 413.68 39.89 380.68 184.51 320.7 307.71 409.18 353.97 342.16 409.71 359.83 396.39 397.18 491.39 435.18 557.89 382.76 594.39 440.18 511.41 512.82 594.39 532.18 536.39 504.18 610.99 451.19"/>
  </g>
</svg>