<?xml version="1.0" encoding="UTF-8"?>
<svg id="Layer_2" data-name="Layer 2" xmlns="http://www.w3.org/2000/svg" viewBox="0 0 1972.75 1048.92">
  <defs>
    <style>
      .cls-1 {
        letter-spacing: 0em;
      }

      .cls-2 {
        font-family: MS-PGothic, 'MS PGothic';
      }

      .cls-2, .cls-3, .cls-4, .cls-5, .cls-6, .cls-7, .cls-8, .cls-9, .cls-10, .cls-11 {
        font-size: 72px;
      }

      .cls-12 {
        letter-spacing: -.15em;
      }

      .cls-13 {
        letter-spacing: -.1em;
      }

      .cls-14 {
        letter-spacing: -.06em;
      }

      .cls-15 {
        letter-spacing: -.05em;
      }

      .cls-4 {
        font-family: BadTyp-Regular, BadTyp;
      }

      .cls-16 {
        letter-spacing: .02em;
      }

      .cls-17 {
        letter-spacing: .01em;
      }

      .cls-5 {
        font-family: Gaegu-Regular, Gaegu;
      }

      .cls-6 {
        font-family: SnellRoundhandLTStd-Scr, 'Snell Roundhand LT Std';
      }

      .cls-18 {
        letter-spacing: -.08em;
      }

      .cls-19 {
        letter-spacing: -.09em;
      }

      .cls-20 {
        letter-spacing: -.06em;
      }

      .cls-21 {
        letter-spacing: .02em;
      }

      .cls-22 {
        letter-spacing: .02em;
      }

      .cls-23 {
        letter-spacing: -.02em;
      }

      .cls-7 {
        font-family: GillSansMT-Italic, 'Gill Sans MT';
        font-style: italic;
      }

      .cls-8 {
        font-family: ComicSansMS, 'Comic Sans MS';
      }

      .cls-9 {
        font-family: Basset-One, Basset;
      }

      .cls-24 {
        letter-spacing: -.05em;
      }

      .cls-25 {
        letter-spacing: .02em;
      }

      .cls-26, .cls-11 {
        font-family: PFVideotext-Regular, 'PF Videotext';
      }

      .cls-27 {
        font-family: Alagard, Alagard;
      }

      .cls-28 {
        letter-spacing: 0em;
      }

      .cls-29 {
        letter-spacing: -.05em;
      }

      .cls-30 {
        letter-spacing: -.03em;
      }

      .cls-31 {
        letter-spacing: -.04em;
      }

      .cls-10 {
        font-family: BurghiRoman-small, Burghi;
        font-variation-settings: 'opsz' 20;
      }

      .cls-32 {
        letter-spacing: -.03em;
      }

      .cls-33 {
        font-family: rainyhearts, rainyhearts;
      }
    </style>
  </defs>
  <g id="buildings_1" data-name="buildings 1">
    <g>
      <text class="cls-4" transform="translate(834.55 686.52)"><tspan x="0" y="0">IT’S SUPERN</tspan><tspan class="cls-19" x="529.12" y="0">A</tspan><tspan x="576.64" y="0">TURAL</tspan></text>
      <text class="cls-7" transform="translate(1098.77 498.84)"><tspan x="0" y="0">IT’S SUPER</tspan><tspan class="cls-21" x="307.12" y="0">N</tspan><tspan class="cls-13" x="358.1" y="0">A</tspan><tspan x="388.41" y="0">TURAL</tspan></text>
      <text class="cls-10" transform="translate(766.59 432.9)"><tspan x="0" y="0">IT’S SU</tspan><tspan class="cls-28" x="248.47" y="0">P</tspan><tspan x="298.15" y="0">ERN</tspan><tspan class="cls-20" x="453.23" y="0">A</tspan><tspan class="cls-16" x="500.25" y="0">T</tspan><tspan x="548.85" y="0">U</tspan><tspan class="cls-22" x="599.11" y="0">R</tspan><tspan class="cls-1" x="650.73" y="0">AL</tspan></text>
      <text class="cls-7" transform="translate(450.39 80.91)"><tspan x="0" y="0">It</tspan><tspan class="cls-24" x="37.51" y="0">’</tspan><tspan x="48.2" y="0">s supernatu</tspan><tspan class="cls-23" x="363.9" y="0">r</tspan><tspan x="385" y="0">al</tspan></text>
      <text class="cls-3" transform="translate(493.29 581.21)"><tspan class="cls-33" x="0" y="0">IT</tspan><tspan class="cls-26" x="58.5" y="0">’</tspan><tspan class="cls-33" x="80.53" y="0">S SUPERNATURAL</tspan></text>
      <text class="cls-7" transform="translate(1248.55 882.1)"><tspan x="0" y="0">it</tspan><tspan class="cls-24" x="33.75" y="0">’</tspan><tspan x="44.44" y="0">s supernatu</tspan><tspan class="cls-23" x="360.14" y="0">r</tspan><tspan x="381.23" y="0">al</tspan></text>
      <text class="cls-7" transform="translate(521.95 168.66)"><tspan x="0" y="0">IT’S SUPER</tspan><tspan class="cls-21" x="307.12" y="0">N</tspan><tspan class="cls-13" x="358.1" y="0">A</tspan><tspan x="388.41" y="0">TURAL</tspan></text>
      <text class="cls-7" transform="translate(106.08 896.44)"><tspan x="0" y="0">It</tspan><tspan class="cls-24" x="37.51" y="0">’</tspan><tspan x="48.2" y="0">s supernatu</tspan><tspan class="cls-23" x="363.9" y="0">r</tspan><tspan x="385" y="0">al</tspan></text>
      <text class="cls-7" transform="translate(1417.46 635.46)"><tspan x="0" y="0">it</tspan><tspan class="cls-24" x="33.75" y="0">’</tspan><tspan x="44.44" y="0">s supernatu</tspan><tspan class="cls-23" x="360.14" y="0">r</tspan><tspan x="381.23" y="0">al</tspan></text>
      <text class="cls-8" transform="translate(866.52 543.29)"><tspan x="0" y="0">IT’S SUPERNATURAL</tspan></text>
      <text class="cls-8" transform="translate(666.42 320.66)"><tspan x="0" y="0">It’s supernatural</tspan></text>
      <text class="cls-8" transform="translate(765.37 801.68)"><tspan x="0" y="0">it’s supernatural</tspan></text>
      <text class="cls-2" transform="translate(578.86 498.84)"><tspan x="0" y="0">IT’S SUPERNATURAL</tspan></text>
      <text class="cls-2" transform="translate(1466.5 566.3)"><tspan x="0" y="0">It’s supernatural</tspan></text>
      <text class="cls-2" transform="translate(70.37 603.91)"><tspan x="0" y="0">it’s supernatural</tspan></text>
      <text class="cls-6" transform="translate(816.73 168.66)"><tspan x="0" y="0">It</tspan><tspan class="cls-31" x="64.01" y="0">’</tspan><tspan x="77.33" y="0">s supernatural</tspan></text>
      <text class="cls-6" transform="translate(1410.37 710)"><tspan x="0" y="0">it</tspan><tspan class="cls-31" x="36" y="0">’</tspan><tspan x="49.32" y="0">s supernatural</tspan></text>
      <text class="cls-6" transform="translate(1132.65 380.2)"><tspan x="0" y="0">It</tspan><tspan class="cls-31" x="64.01" y="0">’</tspan><tspan x="77.33" y="0">s supernatural</tspan></text>
      <text class="cls-6" transform="translate(1.08 1025.59)"><tspan x="0" y="0">It</tspan><tspan class="cls-31" x="64.01" y="0">’</tspan><tspan x="77.33" y="0">s supernatural</tspan></text>
      <text class="cls-6" transform="translate(215.41 697.74)"><tspan x="0" y="0">it</tspan><tspan class="cls-31" x="36" y="0">’</tspan><tspan x="49.32" y="0">s supernatural</tspan></text>
      <text class="cls-5" transform="translate(419.5 247.43)"><tspan x="0" y="0">IT’S SUPERNATURAL</tspan></text>
      <text class="cls-5" transform="translate(801.4 1025.59)"><tspan x="0" y="0">It’s supernatural</tspan></text>
      <text class="cls-5" transform="translate(694.61 80.91)"><tspan x="0" y="0">It’s supernatural</tspan></text>
      <text class="cls-5" transform="translate(18.2 473.08)"><tspan x="0" y="0">it’s supernatural</tspan></text>
      <text class="cls-3" transform="translate(1196.58 80.91)"><tspan class="cls-27" x="0" y="0">IT</tspan><tspan class="cls-26" x="67.5" y="0">’</tspan><tspan class="cls-27" x="89.53" y="0">S SUPERNATURAL</tspan></text>
      <text class="cls-9" transform="translate(950.73 284.88)"><tspan x="0" y="0">I</tspan><tspan class="cls-17" x="18.29" y="0">T</tspan><tspan x="61.05" y="0">’S SUPERNATURAL</tspan></text>
      <text class="cls-11" transform="translate(400.14 635.46)"><tspan x="0" y="0">IT’S SUPERN</tspan><tspan class="cls-32" x="423.21" y="0">A</tspan><tspan x="466.34" y="0">TURAL</tspan></text>
      <text class="cls-11" transform="translate(329.62 853.55)"><tspan x="0" y="0">It</tspan><tspan class="cls-18" x="55.66" y="0">’</tspan><tspan x="71.93" y="0">s supernatu</tspan><tspan class="cls-15" x="495.21" y="0">r</tspan><tspan x="518.68" y="0">al</tspan></text>
      <text class="cls-11" transform="translate(1324.84 168.66)"><tspan x="0" y="0">it</tspan><tspan class="cls-18" x="53.35" y="0">’</tspan><tspan x="69.62" y="0">s supernatu</tspan><tspan class="cls-29" x="492.9" y="0">r</tspan><tspan x="516.38" y="0">al</tspan></text>
      <text class="cls-10" transform="translate(541.12 710)"><tspan x="0" y="0">It’s supernatu</tspan><tspan class="cls-28" x="556.12" y="0">r</tspan><tspan x="602.27" y="0">al</tspan></text>
      <text class="cls-10" transform="translate(340.64 380.2)"><tspan x="0" y="0">it’s supernatu</tspan><tspan class="cls-28" x="556.41" y="0">r</tspan><tspan x="602.56" y="0">al</tspan></text>
      <text class="cls-4" transform="translate(421.54 635.46)"><tspan x="0" y="0">It</tspan><tspan class="cls-14" x="97.13" y="0">’</tspan><tspan x="112.68" y="0">s supe</tspan><tspan class="cls-25" x="402.98" y="0">r</tspan><tspan x="454.67" y="0">n</tspan><tspan class="cls-12" x="505.51" y="0">a</tspan><tspan class="cls-30" x="553.89" y="0">t</tspan><tspan x="600.98" y="0">ural</tspan></text>
      <text class="cls-4" transform="translate(337.49 516.03)"><tspan x="0" y="0">it</tspan><tspan class="cls-14" x="76.68" y="0">’</tspan><tspan x="92.23" y="0">s supe</tspan><tspan class="cls-25" x="382.53" y="0">r</tspan><tspan x="434.23" y="0">n</tspan><tspan class="cls-12" x="485.06" y="0">a</tspan><tspan class="cls-30" x="533.44" y="0">t</tspan><tspan x="580.53" y="0">ural</tspan></text>
      <text class="cls-9" transform="translate(1045.26 784.28)"><tspan x="0" y="0">I</tspan><tspan class="cls-17" x="18.29" y="0">t</tspan><tspan x="61.05" y="0">’s supernatural</tspan></text>
      <text class="cls-9" transform="translate(860.56 592.79)"><tspan x="0" y="0">i</tspan><tspan class="cls-17" x="18.29" y="0">t</tspan><tspan x="61.05" y="0">’s supernatural</tspan></text>
      <text class="cls-3" transform="translate(325.22 768.74)"><tspan class="cls-27" x="0" y="0">It</tspan><tspan class="cls-26" x="49.5" y="0">’</tspan><tspan class="cls-27" x="71.53" y="0">s supernatural</tspan></text>
      <text class="cls-3" transform="translate(54.64 186.26)"><tspan class="cls-27" x="0" y="0">it</tspan><tspan class="cls-26" x="49.5" y="0">’</tspan><tspan class="cls-27" x="71.53" y="0">s supernatural</tspan></text>
      <text class="cls-3" transform="translate(161.66 59.69)"><tspan class="cls-33" x="0" y="0">It</tspan><tspan class="cls-26" x="40.5" y="0">’</tspan><tspan class="cls-33" x="62.53" y="0">s supernatural</tspan></text>
      <text class="cls-3" transform="translate(1450.72 409.75)"><tspan class="cls-33" x="0" y="0">It</tspan><tspan class="cls-26" x="40.5" y="0">’</tspan><tspan class="cls-33" x="62.53" y="0">s supernatural</tspan></text>
      <text class="cls-2" transform="translate(230.91 318.13)"><tspan x="0" y="0">It’s supernatural</tspan></text>
      <text class="cls-3" transform="translate(485.33 827.83)"><tspan class="cls-27" x="0" y="0">IT</tspan><tspan class="cls-26" x="67.5" y="0">’</tspan><tspan class="cls-27" x="89.53" y="0">S SUPERNATURAL</tspan></text>
      <text class="cls-11" transform="translate(977.76 882.1)"><tspan x="0" y="0">it</tspan><tspan class="cls-18" x="53.35" y="0">’</tspan><tspan x="69.62" y="0">s supernatu</tspan><tspan class="cls-29" x="492.9" y="0">r</tspan><tspan x="516.38" y="0">al</tspan></text>
      <text class="cls-3" transform="translate(1248.51 733.79)"><tspan class="cls-33" x="0" y="0">It</tspan><tspan class="cls-26" x="40.5" y="0">’</tspan><tspan class="cls-33" x="62.53" y="0">s supernatural</tspan></text>
      <text class="cls-3" transform="translate(1356.47 966.58)"><tspan class="cls-33" x="0" y="0">it</tspan><tspan class="cls-26" x="40.5" y="0">’</tspan><tspan class="cls-33" x="62.53" y="0">s supernatural</tspan></text>
      <text class="cls-3" transform="translate(399.59 945.68)"><tspan class="cls-27" x="0" y="0">IT</tspan><tspan class="cls-26" x="67.5" y="0">’</tspan><tspan class="cls-27" x="89.53" y="0">S SUPERNATURAL</tspan></text>
    </g>
  </g>
</svg>