<?xml version="1.0" encoding="UTF-8"?>
<svg id="Layer_2" data-name="Layer 2" xmlns="http://www.w3.org/2000/svg" viewBox="0 0 163.44 288.42">
  <defs>
    <style>
      .cls-1 {
        fill: #fff;
      }

      .cls-2 {
        fill: #999;
      }

      .cls-3 {
        fill: #b3b3b3;
      }
    </style>
  </defs>
  <g id="pixels">
    <g>
      <polygon points="163.44 96.14 153.82 96.14 153.82 105.75 144.21 105.75 144.21 115.37 134.6 115.37 134.6 124.98 124.98 124.98 124.98 134.6 105.75 134.6 105.75 144.21 67.3 144.21 67.3 134.6 48.07 134.6 48.07 288.42 0 288.42 0 57.68 9.61 57.68 9.61 38.46 19.23 38.46 19.23 28.84 28.84 28.84 28.84 19.23 38.46 19.23 38.46 9.61 57.68 9.61 57.68 0 115.37 0 115.37 9.61 134.6 9.61 134.6 19.23 144.21 19.23 144.21 28.84 153.82 28.84 153.82 48.07 163.44 48.07 163.44 96.14"/>
      <g>
        <g>
          <polygon class="cls-1" points="105.76 76.91 67.3 76.91 67.3 86.52 76.91 86.52 76.91 105.75 96.14 105.75 96.14 115.36 105.76 115.36 105.76 124.98 124.98 124.98 124.98 115.36 134.6 115.36 134.6 105.75 144.21 105.75 144.21 96.13 153.83 96.13 153.83 48.06 144.21 48.06 144.21 28.84 134.6 28.84 134.6 19.22 115.37 19.22 115.37 9.61 57.69 9.61 57.69 19.22 38.46 19.22 38.46 28.84 28.84 28.84 28.84 38.45 48.07 38.45 48.07 48.06 57.69 48.06 57.69 76.91 67.3 76.91 67.3 57.68 105.76 57.68 105.76 76.91"/>
          <rect class="cls-1" x="28.84" y="124.98" width="9.61" height="153.82"/>
        </g>
        <polygon class="cls-3" points="19.23 57.69 9.61 57.69 9.61 278.81 28.84 278.81 28.84 124.99 38.45 124.99 38.45 134.6 48.07 134.6 48.07 124.99 67.3 124.99 67.3 134.6 105.75 134.6 105.75 115.37 96.14 115.37 96.14 105.76 76.91 105.76 76.91 86.53 67.3 86.53 67.3 76.92 57.68 76.92 57.68 48.08 48.07 48.08 48.07 38.46 19.23 38.46 19.23 57.69"/>
        <g>
          <rect class="cls-2" x="67.3" y="124.99" width="9.61" height="9.61"/>
          <polygon class="cls-2" points="67.3 124.99 67.3 115.37 57.68 115.37 57.68 105.76 48.07 105.76 48.07 96.15 38.45 96.15 38.45 67.3 28.84 67.3 28.84 76.92 19.23 76.92 19.23 86.53 9.61 86.53 9.61 278.81 19.23 278.81 19.23 115.37 28.84 115.37 28.84 124.99 38.45 124.99 38.45 134.6 48.07 134.6 48.07 124.99 67.3 124.99"/>
        </g>
      </g>
    </g>
  </g>
</svg>