<?xml version="1.0" encoding="UTF-8"?>
<svg id="Layer_2" data-name="Layer 2" xmlns="http://www.w3.org/2000/svg" viewBox="0 0 163.44 288.42">
  <defs>
    <style>
      .cls-1 {
        fill: #fff;
      }

      .cls-2 {
        fill: #999;
      }

      .cls-3 {
        fill: #b3b3b3;
      }
    </style>
  </defs>
  <g id="pixels">
    <g>
      <polygon points="96.14 144.21 96.14 134.6 115.37 134.6 115.37 288.42 163.44 288.42 163.44 57.68 153.82 57.68 153.82 38.46 144.21 38.46 144.21 28.84 134.6 28.84 134.6 19.23 124.98 19.23 124.98 9.61 105.75 9.61 105.75 0 48.07 0 48.07 9.61 28.84 9.61 28.84 19.23 19.23 19.23 19.23 28.84 9.61 28.84 9.61 48.07 0 48.07 0 96.14 9.61 96.14 9.61 105.75 19.23 105.75 19.23 115.37 28.84 115.37 28.84 124.98 38.46 124.98 38.46 134.6 57.68 134.6 57.68 144.21 96.14 144.21"/>
      <g>
        <rect class="cls-1" x="124.98" y="124.63" width="9.61" height="153.82"/>
        <polygon class="cls-1" points="96.14 76.56 105.75 76.56 105.75 47.71 115.37 47.71 115.37 38.1 134.6 38.1 134.6 28.49 124.98 28.49 124.98 18.87 105.75 18.87 105.75 9.26 48.07 9.26 48.07 18.87 28.84 18.87 28.84 28.49 19.23 28.49 19.23 47.71 9.61 47.71 9.61 95.78 19.23 95.78 19.23 105.4 28.84 105.4 28.84 115.01 38.46 115.01 38.46 124.63 57.68 124.63 57.68 134.24 76.91 134.24 76.91 115.01 86.53 115.01 86.53 86.17 96.14 86.17 96.14 76.56 57.68 76.56 57.68 57.33 96.14 57.33 96.14 76.56"/>
      </g>
      <polygon class="cls-3" points="115.37 124.63 115.37 134.24 124.98 134.24 124.98 124.63 134.6 124.63 134.6 278.45 153.82 278.45 153.82 57.33 144.21 57.33 144.21 38.1 115.37 38.1 115.37 47.71 105.75 47.71 105.75 76.56 96.14 76.56 96.14 86.17 86.53 86.17 86.53 115.01 76.91 115.01 76.91 134.24 96.14 134.24 96.14 124.63 115.37 124.63"/>
      <g>
        <rect class="cls-2" x="86.53" y="124.63" width="9.61" height="9.61"/>
        <polygon class="cls-2" points="115.37 124.63 115.37 134.24 124.98 134.24 124.98 124.63 134.6 124.63 134.6 115.01 144.21 115.01 144.21 278.45 153.82 278.45 153.82 86.17 144.21 86.17 144.21 76.56 134.6 76.56 134.6 66.94 124.98 66.94 124.98 95.78 115.37 95.78 115.37 105.4 105.75 105.4 105.75 115.01 96.14 115.01 96.14 124.63 115.37 124.63"/>
      </g>
    </g>
  </g>
</svg>