<?xml version="1.0" encoding="UTF-8"?>
<svg id="Layer_2" data-name="Layer 2" xmlns="http://www.w3.org/2000/svg" viewBox="0 0 241.44 241.44">
  <defs>
    <style>
      .cls-1 {
        fill: #f867b2;
      }

      .cls-2 {
        fill: #34a0ff;
      }
    </style>
  </defs>
  <g id="animal_figures" data-name="animal figures">
    <g>
      <g>
        <polygon class="cls-2" points="229.37 169.01 217.3 169.01 217.3 181.08 205.22 181.08 205.22 193.15 169.01 193.15 169.01 181.08 156.94 181.08 156.94 169.01 144.86 169.01 144.86 144.86 96.58 144.86 96.58 169.01 84.5 169.01 84.5 181.08 72.43 181.08 72.43 193.15 36.22 193.15 36.22 181.08 24.14 181.08 24.14 169.01 12.07 169.01 12.07 144.86 0 144.86 0 241.44 241.44 241.44 241.44 144.86 229.37 144.86 229.37 169.01"/>
        <polygon class="cls-2" points="217.3 96.58 229.37 96.58 229.37 132.79 156.94 132.79 156.94 84.5 169.01 84.5 169.01 60.36 181.08 60.36 181.08 48.29 193.15 48.29 193.15 60.36 205.22 60.36 205.22 72.43 217.3 72.43 217.3 96.58"/>
        <polygon class="cls-2" points="72.43 84.5 84.5 84.5 84.5 132.79 12.07 132.79 12.07 96.58 24.14 96.58 24.14 72.43 36.22 72.43 36.22 60.36 48.29 60.36 48.29 48.29 60.36 48.29 60.36 60.36 72.43 60.36 72.43 84.5"/>
      </g>
      <path class="cls-1" d="M144.86,169.01h12.07v12.07h12.07v12.07h36.22v-12.07h12.07v-12.07h12.07v-24.14h12.07V0H0v144.86h12.07v24.14h12.07v12.07h12.07v12.07h36.22v-12.07h12.07v-12.07h12.07v-24.14h48.29v24.14ZM24.14,72.43h12.07v-12.07h12.07v-12.07h12.07v12.07h12.07v24.14h12.07v48.29H12.07v-36.22h12.07v-24.14ZM169.01,60.36h12.07v-12.07h12.07v12.07h12.07v12.07h12.07v24.14h12.07v36.22h-72.43v-48.29h12.07v-24.14Z"/>
    </g>
  </g>
</svg>