<?xml version="1.0" encoding="UTF-8"?>
<svg id="Layer_2" data-name="Layer 2" xmlns="http://www.w3.org/2000/svg" xmlns:xlink="http://www.w3.org/1999/xlink" viewBox="0 0 1081.92 1081.92">
  <defs>
    <style>
      .cls-1 {
        fill: #333;
        stroke: #000;
        stroke-miterlimit: 10;
        stroke-width: 3px;
      }

      .cls-2 {
        fill: #f867b2;
      }

      .cls-3 {
        mask: url(#mask);
      }

      .cls-4 {
        fill: #34a0ff;
      }

      .cls-5 {
        fill: #f2f2f2;
        opacity: .7;
      }

      .cls-6 {
        fill: url(#linear-gradient);
      }

      .cls-7 {
        filter: url(#luminosity-noclip);
      }
    </style>
    <filter id="luminosity-noclip" x="-43" y="30" width="1233.01" height="1105.35" color-interpolation-filters="sRGB" filterUnits="userSpaceOnUse">
      <feFlood flood-color="#fff" result="bg"/>
      <feBlend in="SourceGraphic" in2="bg"/>
    </filter>
    <linearGradient id="linear-gradient" x1="-11.09" y1="-1.92" x2="1158.09" y2="1167.26" gradientUnits="userSpaceOnUse">
      <stop offset=".08" stop-color="#231f20"/>
      <stop offset=".27" stop-color="#fff"/>
      <stop offset=".33" stop-color="#231f20"/>
      <stop offset=".45" stop-color="#000"/>
      <stop offset=".55" stop-color="#333"/>
      <stop offset=".65" stop-color="#fff"/>
      <stop offset=".69" stop-color="#231f20"/>
      <stop offset=".7" stop-color="#fff"/>
      <stop offset=".8" stop-color="#231f20"/>
      <stop offset="1" stop-color="#231f20"/>
    </linearGradient>
    <mask id="mask" x="-43" y="30" width="1233.01" height="1105.35" maskUnits="userSpaceOnUse">
      <g class="cls-7">
        <rect class="cls-6" x="-43" y="30" width="1233.01" height="1105.35"/>
      </g>
    </mask>
  </defs>
  <g id="CD">
    <g>
      <path class="cls-1" d="M540.96,1.5C243.02,1.5,1.5,243.02,1.5,540.96s241.52,539.46,539.46,539.46,539.46-241.52,539.46-539.46S838.9,1.5,540.96,1.5ZM540.79,605.38c-35.74,0-64.72-28.98-64.72-64.72s28.98-64.72,64.72-64.72,64.72,28.98,64.72,64.72-28.98,64.72-64.72,64.72Z"/>
      <g>
        <path class="cls-2" d="M1028.03,540.6c-.02-16.88-.9-33.56-2.59-50-1.75-16.94-4.36-33.62-7.8-50-3.57-17.01-8.02-33.69-13.31-50-4.12-12.69-8.75-25.15-13.86-37.36-1.78-4.24-3.6-8.46-5.5-12.64-7.79-17.23-16.56-33.91-26.23-50-5.77-9.61-11.87-19-18.27-28.17-5.19-7.43-10.58-14.71-16.17-21.83-10.6-13.5-21.89-26.42-33.83-38.71-3.71-3.82-7.49-7.59-11.33-11.29-12.29-11.86-25.2-23.08-38.67-33.6-7.26-5.67-14.68-11.14-22.26-16.4-9.03-6.26-18.28-12.22-27.74-17.87-16.09-9.62-32.78-18.33-50-26.07-4.65-2.09-9.34-4.11-14.06-6.06-11.75-4.84-23.74-9.24-35.94-13.17-16.31-5.25-32.99-9.67-50-13.2-16.38-3.4-33.06-5.98-50-7.69-16.28-1.64-32.8-2.49-49.51-2.49-.16,0-.33,0-.49,0-16.88.02-33.56.89-50,2.59-16.94,1.74-33.62,4.36-50,7.8-17.01,3.57-33.69,8.01-50,13.31-11.86,3.85-23.52,8.15-34.96,12.86l-15.04,6.49c-17.23,7.79-33.91,16.56-50,26.23-9.12,5.48-18.04,11.24-26.76,17.28-7.92,5.49-15.67,11.22-23.24,17.16-13.13,10.3-25.7,21.27-37.69,32.84-4.17,4.03-8.28,8.13-12.31,12.3-11.57,11.99-22.54,24.57-32.85,37.7-5.94,7.57-11.66,15.31-17.15,23.23-6.05,8.72-11.81,17.65-17.29,26.77-9.67,16.09-18.44,32.77-26.23,50-2.24,4.96-4.4,9.96-6.47,15-4.72,11.46-9.03,23.13-12.88,35-5.29,16.31-9.74,32.99-13.31,50-3.44,16.38-6.06,33.06-7.8,50-1.69,16.44-2.57,33.12-2.59,50,0,.17,0,.35,0,.52,0,16.7.84,33.21,2.48,49.48,1.71,16.94,4.29,33.62,7.69,50h26.41v86.04c1.93,4.69,3.94,9.34,6.01,13.96h43.99v50h50v50h150v-50h50v-50h50v-100h200v100h50v50h50v50h150v-50h50v-50h44.97c1.73-3.84,3.4-7.71,5.03-11.6v-88.4h27.39c3.4-16.38,5.98-33.06,7.69-50,1.64-16.27,2.48-32.78,2.48-49.48,0-.17,0-.35,0-.52ZM90.47,540.6v-100h50v-100h50v-50h50v-50h50v50h50v100h50v200H90.47v-50ZM540.81,599.28c-.11,0-.22,0-.34,0-11.12-.06-21.5-3.23-30.32-8.68-8.08-4.99-14.85-11.89-19.68-20.07-5.14-8.7-8.1-18.84-8.1-29.68,0-.08,0-.17,0-.25.05-10.74,2.99-20.79,8.09-29.43,5-8.46,12.07-15.55,20.51-20.57,8.64-5.14,18.72-8.12,29.49-8.18.11,0,.22,0,.34,0,10.9,0,21.09,2.99,29.82,8.19,8.07,4.8,14.89,11.49,19.84,19.46,5.51,8.88,8.72,19.33,8.77,30.54,0,.08,0,.17,0,.25,0,11.3-3.22,21.85-8.77,30.79-4.78,7.7-11.3,14.2-19.01,18.96-8.91,5.5-19.41,8.69-30.65,8.69ZM940.47,590.6h-250v-200h50v-100h50v-50h50v50h50v50h50v100h50v150h-50Z"/>
        <g>
          <path class="cls-4" d="M990.32,640.6v88.4c5.25-12.54,9.99-25.35,14.19-38.4,5.25-16.31,9.67-32.99,13.2-50h-27.39Z"/>
          <path class="cls-4" d="M940.32,790.6h-50v50h-150v-50h-50v-50h-50v-100h-200v100h-50v50h-50v50h-150v-50h-50v-50h-43.99c7.74,17.22,16.46,33.91,26.07,50,5.67,9.48,11.64,18.76,17.92,27.82,5.24,7.55,10.69,14.95,16.34,22.18,10.54,13.5,21.78,26.43,33.66,38.74,3.68,3.81,7.42,7.57,11.22,11.26,12.31,11.96,25.26,23.27,38.78,33.88,7.1,5.57,14.35,10.94,21.76,16.12,9.19,6.42,18.61,12.54,28.24,18.33,16.09,9.67,32.77,18.44,50,26.23,4.15,1.88,8.33,3.69,12.54,5.45,12.24,5.13,24.74,9.77,37.46,13.9,16.31,5.29,32.99,9.74,50,13.31,16.38,3.44,33.06,6.05,50,7.8,16.44,1.69,33.12,2.57,50,2.59.16,0,.33,0,.49,0,16.71,0,33.23-.84,49.51-2.49,16.94-1.71,33.62-4.29,50-7.69,17.01-3.53,33.69-7.95,50-13.2,13.07-4.21,25.89-8.96,38.45-14.21,3.88-1.62,7.73-3.29,11.55-5.01,17.22-7.74,33.91-16.46,50-26.07,9.98-5.96,19.72-12.27,29.22-18.91,7.07-4.94,13.99-10.06,20.78-15.36,13.87-10.83,27.14-22.4,39.76-34.64,3.46-3.36,6.88-6.78,10.24-10.25,12.24-12.61,23.81-25.88,34.64-39.75,5.3-6.79,10.42-13.72,15.36-20.79,6.64-9.49,12.94-19.24,18.9-29.21,9.61-16.09,18.33-32.78,26.07-50h-44.97v50Z"/>
          <polygon class="cls-4" points="790.32 590.6 840.32 590.6 890.32 590.6 940.32 590.6 990.32 590.6 990.32 540.6 990.32 490.6 990.32 440.6 940.32 440.6 940.32 390.6 940.32 340.6 890.32 340.6 890.32 290.6 840.32 290.6 840.32 240.6 790.32 240.6 790.32 290.6 740.32 290.6 740.32 340.6 740.32 390.6 690.32 390.6 690.32 440.6 690.32 490.6 690.32 540.6 690.32 590.6 740.32 590.6 790.32 590.6"/>
          <polygon class="cls-4" points="190.32 590.6 240.32 590.6 290.32 590.6 340.32 590.6 390.32 590.6 390.32 540.6 390.32 490.6 390.32 440.6 390.32 390.6 340.32 390.6 340.32 340.6 340.32 290.6 290.32 290.6 290.32 240.6 240.32 240.6 240.32 290.6 190.32 290.6 190.32 340.6 140.32 340.6 140.32 390.6 140.32 440.6 90.32 440.6 90.32 490.6 90.32 540.6 90.32 590.6 140.32 590.6 190.32 590.6"/>
          <path class="cls-4" d="M77.1,690.6c3.94,12.23,8.35,24.25,13.21,36.04v-86.04h-26.41c3.53,17.01,7.95,33.69,13.2,50Z"/>
        </g>
      </g>
      <g class="cls-3">
        <path class="cls-5" d="M540.39,53.45c-269.33,0-487.67,218.34-487.67,487.67s218.34,487.67,487.67,487.67,487.67-218.34,487.67-487.67S809.72,53.45,540.39,53.45ZM540.23,599.35c-32.31,0-58.51-26.19-58.51-58.51s26.19-58.51,58.51-58.51,58.51,26.19,58.51,58.51-26.19,58.51-58.51,58.51Z"/>
      </g>
    </g>
  </g>
</svg>