<?xml version="1.0" encoding="UTF-8"?>
<svg id="Layer_2" data-name="Layer 2" xmlns="http://www.w3.org/2000/svg" xmlns:xlink="http://www.w3.org/1999/xlink" viewBox="0 0 228.06 366">
  <defs>
    <style>
      .cls-1 {
        fill: url(#radial-gradient);
        stroke: #000;
        stroke-miterlimit: 10;
        stroke-width: 2px;
      }
    </style>
    <radialGradient id="radial-gradient" cx="18959.6" cy="183" fx="18959.6" fy="183" r="151.49" gradientTransform="translate(19073.63) rotate(-180) scale(1 -1)" gradientUnits="userSpaceOnUse">
      <stop offset=".07" stop-color="#fff"/>
      <stop offset=".48" stop-color="#f867b2"/>
      <stop offset=".7" stop-color="#2f4cd6"/>
    </radialGradient>
  </defs>
  <g id="moon_stars" data-name="moon/stars">
    <path class="cls-1" d="M104.25,1c.24-.02.98,1.62,7.32,63.88,2.93,28.74,4.39,43.11,4.46,44.56,1.94,42.44-4.42,60.6,7,69,2.94,2.16,10.32,3.08,25.09,4.93,12.97,1.62,22.94,1.8,27.91,2.07,17.99.99,35.03,1.25,51,1,1.42-.02-45.26,15.64-82,13-3.89-.28-14.1-1.21-20,5-6.04,6.35-4.41,16.86-4,20,5.02,38.21-17.58,140.58-17.78,140.57-.13-.01,2.36-44.34,3.78-83.57,2-55.22.7-67.72-9-77-15.09-14.43-45.02-15.78-58-14-12.88,1.76-26.1-.67-39,1-1.06.14,28.57-12.63,65-11,25.52,1.14,26.19-2.2,30-5,14.61-10.75,11.28-34.52,9-82-2.44-50.71-1.95-92.35-.78-92.43Z"/>
  </g>
</svg>