<?xml version="1.0" encoding="UTF-8"?>
<svg id="Layer_2" data-name="Layer 2" xmlns="http://www.w3.org/2000/svg" viewBox="0 0 195.55 193.23">
  <defs>
    <style>
      .cls-1 {
        fill: #f867b2;
        stroke: #000;
        stroke-miterlimit: 10;
        stroke-width: 2px;
      }
    </style>
  </defs>
  <g id="moon_stars" data-name="moon/stars">
    <path class="cls-1" d="M118.6,104.92c23.19-2.76,46.39-5.53,69.58-8.29-22.64-3.5-45.28-7.01-67.91-10.51,16.11-20.14,32.22-40.27,48.33-60.41-19.66,17.52-39.32,35.03-58.98,52.54-3.98-24.04-7.96-48.09-11.94-72.13-3.98,24.03-7.96,48.05-11.93,72.08-20-17.5-39.99-34.99-59.99-52.49,16.8,20.08,33.59,40.16,50.39,60.24-22.99,3.56-45.98,7.12-68.97,10.68,23.44,2.99,46.87,5.97,70.31,8.96-17.24,20.99-34.48,41.98-51.72,62.97,20.25-18.8,40.5-37.6,60.75-56.41,3.73,25,7.45,50,11.18,74.99,4.47-24.32,8.95-48.63,13.42-72.95,19.17,18.12,38.33,36.24,57.5,54.36-16.66-21.21-33.33-42.42-49.99-63.63Z"/>
  </g>
</svg>