<?xml version="1.0" encoding="UTF-8"?>
<svg id="Layer_2" data-name="Layer 2" xmlns="http://www.w3.org/2000/svg" xmlns:xlink="http://www.w3.org/1999/xlink" viewBox="0 0 1922 324.67">
  <defs>
    <style>
      .cls-1 {
        fill: url(#linear-gradient);
        stroke: #000;
        stroke-miterlimit: 10;
        stroke-width: 2px;
      }
    </style>
    <linearGradient id="linear-gradient" x1="961" y1="323.67" x2="961" y2="1" gradientUnits="userSpaceOnUse">
      <stop offset="0" stop-color="#090c0b"/>
      <stop offset=".35" stop-color="#302488"/>
      <stop offset=".68" stop-color="#302488"/>
    </linearGradient>
  </defs>
  <g id="buildings_2" data-name="buildings 2">
    <polygon class="cls-1" points="1921 323.5 1921 323.67 1 323.67 1 120.85 20.91 120.85 20.91 108.99 20.91 58.95 20.91 1 59.72 1 59.72 58.95 121 58.95 174.11 58.95 174.11 120.85 174.11 140.56 174.11 174.85 204.74 174.85 204.74 130.07 274.19 130.07 274.19 174.85 274.19 181.43 274.19 224.85 298.7 224.85 298.7 120.85 353.85 120.85 353.85 45.12 388.57 45.12 388.57 120.85 388.57 142.25 388.57 224.85 402.87 224.85 402.87 166.94 453.94 166.94 453.94 58.95 527.47 58.95 527.47 108.99 654.11 108.99 654.11 45.12 672.49 45.12 672.49 108.99 672.49 130.07 672.49 190.65 746.02 190.65 746.02 120.85 799.13 120.85 799.13 91.87 837.94 91.87 837.94 35.24 907.38 35.24 907.38 224.85 917.6 224.85 917.6 159.43 961 159.43 961 120.85 1023.81 120.85 1023.81 159.43 1066.7 159.43 1066.7 190.65 1087.13 190.65 1087.13 12.85 1160.66 12.85 1160.66 190.65 1201.51 190.65 1201.51 108.99 1321 108.99 1321 48.41 1363.89 48.41 1363.89 19.44 1397.6 19.44 1397.6 48.41 1440.49 48.41 1440.49 108.99 1440.49 142.25 1440.49 159.43 1528.32 159.43 1528.32 190.65 1544.66 190.65 1544.66 151.14 1544.66 108.99 1544.66 53.68 1607.98 53.68 1607.98 108.99 1685.6 108.99 1685.6 159.43 1734.62 159.43 1734.62 58.95 1808.15 58.95 1808.15 142.25 1873.51 142.25 1873.51 213.04 1921 213.04 1921 323.5"/>
  </g>
</svg>