<?xml version="1.0" encoding="UTF-8"?>
<svg id="Layer_2" data-name="Layer 2" xmlns="http://www.w3.org/2000/svg" xmlns:xlink="http://www.w3.org/1999/xlink" viewBox="0 0 1922 674.01">
  <defs>
    <style>
      .cls-1 {
        fill: url(#linear-gradient);
        stroke: #000;
        stroke-miterlimit: 10;
        stroke-width: 2px;
      }
    </style>
    <linearGradient id="linear-gradient" x1="961" y1="673.01" x2="961" y2="1" gradientUnits="userSpaceOnUse">
      <stop offset="0" stop-color="#302488"/>
      <stop offset=".51" stop-color="#2f4cd6"/>
      <stop offset=".79" stop-color="#3ab0ff"/>
    </linearGradient>
  </defs>
  <g id="buildings_2" data-name="buildings 2">
    <polygon class="cls-1" points="1 673.01 1921 673.01 1921 420.63 1878.62 420.63 1878.62 269.07 1832.66 269.07 1832.66 213.7 1770.36 213.7 1770.36 269.07 1770.36 290.25 1770.36 338.98 1754.02 338.98 1754.02 420.63 1719.3 420.63 1719.3 269.07 1695.81 269.07 1695.81 176.16 1644.74 176.16 1644.74 130.07 1575.3 130.07 1575.3 176.16 1575.3 196.58 1575.3 269.07 1527.3 269.07 1527.3 191.47 1476.23 191.47 1476.23 252.06 1406.79 252.06 1406.79 315.27 1363.89 315.27 1363.89 420.63 1331.21 420.63 1331.21 330.58 1313.85 330.58 1313.85 248.6 1298.53 248.6 1298.53 161.68 1270.96 161.68 1270.96 248.6 1256.66 248.6 1256.66 330.58 1237.26 330.58 1237.26 350.83 1210.7 350.83 1210.7 420.63 1194.36 420.63 1194.36 187.52 1114.7 187.52 1114.7 109.82 1069.77 109.82 1069.77 42.65 1052.4 42.65 1052.4 1 1041.17 1 1041.17 42.65 1022.79 42.65 1022.79 109.82 932.91 109.82 932.91 67.51 869.6 67.51 869.6 109.82 869.6 120.85 869.6 290.25 787.89 290.25 787.89 220.28 768.49 220.28 768.49 270.16 727.64 270.16 727.64 420.63 684.74 420.63 684.74 258.64 656.15 258.64 656.15 324.82 615.3 324.82 615.3 290.25 583.64 290.25 583.64 255.18 557.08 255.18 557.08 290.25 524.4 290.25 524.4 420.63 499.89 420.63 499.89 258.64 442.7 258.64 442.7 281.03 426.36 281.03 426.36 315.27 381.43 315.27 381.43 187.52 336.49 187.52 336.49 315.27 336.49 352.81 336.49 360.05 299.72 360.05 299.72 420.63 290.53 420.63 290.53 386.72 266.53 386.72 266.53 361.53 234.36 361.53 234.36 420.63 217 420.63 217 332.89 217 326.96 217 281.03 193.51 281.03 193.51 326.96 135.81 326.96 135.81 350.83 121 350.83 121 420.63 99.55 420.63 99.55 252.06 28.06 252.06 28.06 157.23 1 157.23 1 673.01"/>
  </g>
</svg>